# xmcd
#
# Track frame offsets:
#	150
#	8925
#	17242
#	28547
#	41232
#	50155
#	62407
#	74190
#	84472
#	92002
#	101910
#	112047
#	119692
#	128705
#	139257
#	148362
#	156245
#	165845
#	174662
#	182442
#
# Disc length: 2574 seconds
#
# Revision: 0
# Processed by: cddbd v1.5.2PL0 Copyright (c) Steve Scherf et al.
# Submitted via: dBpowerAMP V4.0
#
DISCID=270a0c14
DTITLE=Jim Reeves - Country's Gentleman
DYEAR=1998
DGENRE=Country
TTITLE0=Yonder Comes A Sucker
TTITLE1=Waiting For A Train
TTITLE2=Am I Losing You?
TTITLE3=When God Dips His Love In My Heart
TTITLE4=According To My Heart
TTITLE5=Four Walls
TTITLE6=Mexican Joe
TTITLE7=Anna Marie
TTITLE8=Blue Boy
TTITLE9=Softly and Tenderly
TTITLE10=He'll Have To Go
TTITLE11=Bimbo
TTITLE12=Id Like To Be
TTITLE13=Peace In The Valley
TTITLE14=Billy Bayou
TTITLE15=In A Mission Stands My Love
TTITLE16=I'm Getting Better
TTITLE17=(Gimmie That) Old Time Religion
TTITLE18=I Know One
TTITLE19=I Missed Me
EXTD=
EXTT0=
EXTT1=
EXTT2=
EXTT3=
EXTT4=
EXTT5=
EXTT6=
EXTT7=
EXTT8=
EXTT9=
EXTT10=
EXTT11=
EXTT12=
EXTT13=
EXTT14=
EXTT15=
EXTT16=
EXTT17=
EXTT18=
EXTT19=
PLAYORDER=
